<?xml version="1.0" standalone="no"?>
<!DOCTYPE svg PUBLIC "-//W3C//DTD SVG 1.1//EN"
 "http://www.w3.org/Graphics/SVG/1.1/DTD/svg11.dtd">
<svg version="1.1" xmlns="http://www.w3.org/2000/svg" xmlns:xlink="http://www.w3.org/1999/xlink"
 width="1024" height="1024" viewBox="0 0 1024 1024"
 preserveAspectRatio="xMidYMid meet">

  <!-- Define a clipping path for rounded corners (optional) -->
  <defs>
    <clipPath id="roundedClip">
      <rect x="0" y="0" width="1024" height="1024" rx="64" ry="64"/>
    </clipPath>
    <!-- Optional: Add a subtle background gradient -->
    <linearGradient id="bgGradient" x1="0%" y1="0%" x2="100%" y2="100%">
      <stop offset="0%" style="stop-color:#f8f9fa;stop-opacity:1" />
      <stop offset="100%" style="stop-color:#e9ecef;stop-opacity:1" />
    </linearGradient>
  </defs>

  <!-- Background layer -->
  <rect width="1024" height="1024" fill="url(#bgGradient)" clip-path="url(#roundedClip)"/>

  <!-- External logo image - centered and scaled -->
  <!-- Note: For production, consider optimizing the image size and using a CDN -->
  <image 
    xlink:href="https://asilvainnovations.com/assets/apps/user_1097/app_13212/draft/icon/app_logo.png?1772339903"
    x="128" y="128" 
    width="768" height="768" 
    preserveAspectRatio="xMidYMid meet"
    clip-path="url(#roundedClip)"
    alt="Application Logo"/>

  <!-- Optional: Fallback vector path (your original design) as a decorative overlay or backup -->
  <!-- Uncomment below if you want to keep the original path as a subtle background element -->
  <!--
  <g opacity="0.05" transform="translate(0,1024) scale(0.1,-0.1)" fill="#000000" stroke="none">
    <path d="M1790 10229 c-267 -28 -544 -118 -788 -259 -557 -319 -927 -892 -992
    -1539 -14 -143 -14 -6479 0 -6622 96 -955 845 -1704 1799 -1799 143 -14 6479
    -14 6622 0 693 69 1301 491 1604 1114 107 218 170 442 195 685 14 143 14 6479
    0 6622 -96 955 -846 1704 -1799 1799 -129 13 -6516 11 -6641 -1z m6588 -1291
    c17 -17 15 -65 -8 -198 -49 -295 -79 -421 -149 -635 -96 -293 -188 -519 -319
    -783 -154 -309 -300 -548 -495 -812 -297 -401 -487 -606 -914 -988 -236 -211
    -637 -475 -929 -613 -160 -75 -163 -75 -232 -1 -31 33 -93 89 -137 123 -44 34
    -111 93 -150 129 -38 37 -140 127 -225 200 -148 127 -190 173 -190 212 0 23
    59 176 182 473 30 72 71 173 92 225 77 194 92 229 167 387 183 384 343 613
    586 841 248 231 400 353 733 585 268 187 551 338 950 507 128 54 344 137 495
    190 50 17 131 47 180 65 271 101 338 118 363 93z m-3327 -1925 c19 -19 2 -75
    -45 -149 -91 -146 -212 -370 -348 -644 -174 -351 -236 -488 -300 -655 -27 -71
    -56 -146 -63 -165 -8 -19 -14 -57 -15 -85 0 -62 -17 -124 -35 -131 -7 -3 -36
    6 -64 20 -54 28 -100 33 -134 14 -20 -10 -283 -249 -562 -510 -66 -62 -172
    -152 -235 -199 -124 -93 -429 -288 -600 -383 -58 -33 -150 -87 -205 -121 -147
    -92 -273 -158 -290 -151 -22 8 -19 64 6 111 11 22 44 76 73 120 30 44 84 130
    121 190 38 61 101 160 140 220 40 61 85 133 100 160 15 28 35 61 45 75 17 24
    180 316 259 464 22 39 69 127 106 196 76 141 136 255 322 615 283 546 456 802
    568 845 17 6 112 25 213 41 100 16 238 40 305 53 67 14 145 27 172 31 44 6
    233 36 305 49 44 8 150 0 161 -11z m1809 -1548 c9 -11 11 -49 6 -147 -4 -73
    -11 -227 -16 -343 -22 -463 -48 -828 -70 -962 -19 -115 -49 -192 -92 -239 -83
    -90 -251 -231 -726 -608 -415 -329 -485 -385 -723 -586 -446 -373 -1019 -912
    -1278 -1200 -124 -138 -141 -153 -163 -145 -36 14 -40 52 -33 290 21 759 70
    941 378 1383 249 359 612 755 1052 1148 110 98 202 181 205 184 3 3 32 27 65
    55 33 27 107 92 165 145 58 52 184 165 280 250 95 85 237 214 314 285 78 72
    179 162 226 199 47 38 108 90 135 116 79 73 235 190 255 190 4 0 13 -7 20 -15z
    m-2219 -661 c39 -19 95 -86 130 -156 43 -85 52 -193 20 -255 -72 -141 -514
    -582 -1031 -1028 -96 -82 -197 -170 -225 -195 -28 -25 -104 -90 -170 -145
    -127 -105 -310 -262 -385 -331 -25 -23 -63 -57 -85 -75 -22 -19 -51 -44 -65
    -57 -14 -13 -42 -32 -63 -43 -34 -18 -38 -18 -44 -3 -7 19 44 119 130 254 97
    151 298 456 376 568 214 309 263 378 377 535 276 381 483 638 612 758 61 57
    108 90 184 130 140 71 171 77 239 43z"/>
  </g>
  -->

  <!-- Optional: Add a subtle border/shadow effect -->
  <rect x="8" y="8" width="1008" height="1008" 
        fill="none" stroke="rgba(0,0,0,0.08)" stroke-width="2" rx="64" ry="64"/>

</svg>
